<svg xmlns="http://www.w3.org/2000/svg" width="128.014" height="20" viewBox="0 0 128.014 20">
  <g id="logo" transform="translate(0 0)">
    <g id="Group_142" data-name="Group 142" transform="translate(0 0.695)">
      <path id="Path_1" data-name="Path 1" d="M125.162,7.608h.056l3.523,9.468h-7.148ZM131.4,24.2h1.412L125.881,5.66h-.908L117.851,24.2h1.04l2.376-6.271h7.79Zm-38.222,0V6.833h.051l6.347,17.334h1.015L107,6.858h.051V24.192h1.336V5.793h-1.866L100.358,22.25h-.025L94.22,5.793H92.247V24.2ZM71.925,5.793V24.2H82.754v-.851H73.261V15.021H79.69v-.851H73.261V6.644h8.723V5.793Zm-45.707,0H24.887V24.2H35.823v-.851H26.218ZM4.8,5.793V24.2H6.136V15.153h6.4V14.3h-6.4V6.644h9.335V5.793Z" transform="translate(-4.8 -5.66)" fill="#fff"/>
    </g>
    <g id="Group_148" data-name="Group 148" transform="translate(38.759 0)">
      <g id="Group_143" data-name="Group 143" transform="translate(0.772 1.431)">
        <path id="Path_2" data-name="Path 2" d="M88.482,25.672a1.852,1.852,0,0,1-1.806-.88c-.028-.042-.051-.08-.074-.107l-.113-.135a17.3,17.3,0,0,0-1.369-1.521,1.919,1.919,0,0,1-.453-1.076,2.072,2.072,0,0,0-.107-.4c-.028-.048-.1-.153-.2-.3a10.5,10.5,0,0,1-1.306-2.326A4.624,4.624,0,0,1,83.184,17a4.077,4.077,0,0,0,.121-.84,5.375,5.375,0,0,0-.592-1.547,1.929,1.929,0,0,1-.147-2.075c.568-1.3.884-1.99,1.273-2.231.353-.218,1.485-.807,1.533-.832l.018-.008a1.665,1.665,0,0,0,.879-.848c.063-.1.126-.209.2-.309a3.021,3.021,0,0,0,.188-.317c.147-.278.232-.4.873-.7a5.789,5.789,0,0,1,2.965.045,4.131,4.131,0,0,0,.572.088,12.839,12.839,0,0,1,2.715.925l.227.09a8.283,8.283,0,0,1,2.03,1.45,2.927,2.927,0,0,0,1.029.661c.173.08.352.162.516.257.569.331,1.207.867,1.292,1.377.015.092.033.189.054.294a14.831,14.831,0,0,1,.257,2.106,4.979,4.979,0,0,1-.422,2.9,6.975,6.975,0,0,0-.682,1.913,4.791,4.791,0,0,1-1.569,2.434,4.316,4.316,0,0,1-2,1.355c-.1.034-.2.068-.315.111-.152.056-.275.095-.382.128-.432.135-.593.185-1.556,1.134-.87.854-1.014.885-1.733.921a11.465,11.465,0,0,0-1.269.125A5.084,5.084,0,0,1,88.482,25.672ZM85.5,9.747c-.108.056-1.176.614-1.5.817a5.9,5.9,0,0,0-1.154,2.093,1.652,1.652,0,0,0,.093,1.745,5.424,5.424,0,0,1,.672,1.732,4.046,4.046,0,0,1-.127.923,4.449,4.449,0,0,0-.131,1.793,10.565,10.565,0,0,0,1.264,2.236c.1.152.179.265.209.316a1.944,1.944,0,0,1,.141.489,1.82,1.82,0,0,0,.342.9,15.393,15.393,0,0,1,1.415,1.567l.113.135a1.386,1.386,0,0,1,.1.137c.213.327.611.938,2.274.681a11.579,11.579,0,0,1,1.3-.128c.655-.033.723-.037,1.535-.834,1.015-1,1.21-1.061,1.679-1.208.1-.032.221-.069.368-.122.117-.043.223-.08.322-.113A4.047,4.047,0,0,0,96.3,21.616a4.514,4.514,0,0,0,1.485-2.28,7.291,7.291,0,0,1,.711-1.993,4.663,4.663,0,0,0,.387-2.741,14.487,14.487,0,0,0-.252-2.068c-.02-.108-.039-.206-.055-.3-.064-.38-.62-.858-1.144-1.163-.151-.088-.316-.163-.489-.243a3.164,3.164,0,0,1-1.132-.736,7.967,7.967,0,0,0-1.911-1.368l-.229-.091a14.168,14.168,0,0,0-2.587-.9,4.36,4.36,0,0,1-.642-.093,5.62,5.62,0,0,0-2.781-.069c-.573.266-.613.342-.732.565a3.281,3.281,0,0,1-.207.348c-.067.1-.126.194-.186.293A1.966,1.966,0,0,1,85.5,9.747Z" transform="translate(-82.337 -7.103)" fill="#fff"/>
      </g>
      <g id="Group_144" data-name="Group 144" transform="translate(1.486 2.059)">
        <path id="Path_3" data-name="Path 3" d="M90.446,20.894a3.539,3.539,0,0,1-1.066-.2l-.17-.051A10.886,10.886,0,0,1,86.4,18.753,1.785,1.785,0,0,1,85.945,18a3.3,3.3,0,0,0-.915-1.361c-1-1.021-1.114-1.418-1.2-1.708a1.412,1.412,0,0,0-.056-.164.642.642,0,0,1,.031-.494,3.037,3.037,0,0,1,1.707-1.449,1.665,1.665,0,0,0,1.021-1.751l-.018-.125.027-.01c.011-.112.032-.363.077-.921.082-1.012.93-1.553,2.6-1.654,1.51-.093,2.146.051,2.714.614a5.971,5.971,0,0,0,1.639,1.253c.2.088.468.175.754.268a5.229,5.229,0,0,1,1.474.634c.589.46.543,1.185.4,2.534l-.027.251a4.3,4.3,0,0,1-.3,1.624,2.863,2.863,0,0,1-.442.594,7.282,7.282,0,0,0-1.2,1.858,2.791,2.791,0,0,1-.583,1.016l-.032.03a2.351,2.351,0,0,1-.326.244,13.536,13.536,0,0,0-1.365,1.047A2.2,2.2,0,0,1,90.446,20.894Zm-3.61-9.866A2,2,0,0,1,85.629,13.1a2.737,2.737,0,0,0-1.541,1.28.381.381,0,0,0-.036.256,1.574,1.574,0,0,1,.07.2c.077.26.184.615,1.127,1.582a3.608,3.608,0,0,1,.983,1.47,1.492,1.492,0,0,0,.386.643,10.633,10.633,0,0,0,2.672,1.813c.055.015.115.034.179.054a2.124,2.124,0,0,0,2.251-.31,14.011,14.011,0,0,1,1.393-1.068,2.249,2.249,0,0,0,.281-.207l.035-.034c.1-.1.187-.18.516-.92A7.577,7.577,0,0,1,95.2,15.929a3.171,3.171,0,0,0,.393-.519,4.087,4.087,0,0,0,.274-1.528l.027-.251c.143-1.367.156-1.916-.286-2.26a5.032,5.032,0,0,0-1.38-.584,8.154,8.154,0,0,1-.786-.28,6.251,6.251,0,0,1-1.728-1.314c-.492-.488-1.07-.612-2.48-.526-1.508.092-2.242.528-2.31,1.373-.046.567-.068.846-.092.989Z" transform="translate(-83.737 -8.335)" fill="#fff"/>
      </g>
      <g id="Group_145" data-name="Group 145" transform="translate(0)">
        <path id="Path_4" data-name="Path 4" d="M89.753,22.8a1.076,1.076,0,0,1-.65-.164,6.557,6.557,0,0,1-.709-.719c-.552-.61-1.306-1.44-1.867-1.39a2.632,2.632,0,0,1-1.838-.807,2.738,2.738,0,0,1-.9-2.12,2.182,2.182,0,0,0-1.432-2.1,1.117,1.117,0,0,1-.2-.113,1.245,1.245,0,0,0-.134-.077,1.955,1.955,0,0,1-1.2-1.758c0-1.157,0-3.564,1.376-3.885.174-.041.347-.08.516-.118.963-.217,1.873-.421,2.134-.792a2.052,2.052,0,0,0,.173-.313c.176-.368.358-.748,1.457-1.005l1.313-.306A3.436,3.436,0,0,0,88.852,5.6c.405-1.141,1.058-1.272,1.514-1.272.042,0,.118,0,.221-.007,1.368-.053,2.985-.041,3.361.533a7.259,7.259,0,0,1,.427.833c.356.765.8,1.717,1.394,2a6.144,6.144,0,0,1,2.414,2.445c.063.136.144.279.231.433a2.953,2.953,0,0,1,.371,2.859,5.358,5.358,0,0,1-1.777,2.562,2.157,2.157,0,0,0-.688,1.778,1.994,1.994,0,0,1-.037.458,1.733,1.733,0,0,0-.035.2c-.063.469-.169,1.253-1.793,2.451A10.034,10.034,0,0,1,89.753,22.8ZM86.578,20.22c.692,0,1.439.825,2.043,1.494a6.588,6.588,0,0,0,.669.681c.529.406,3.139-.412,4.983-1.773,1.519-1.121,1.611-1.8,1.671-2.245a2.047,2.047,0,0,1,.042-.242,1.8,1.8,0,0,0,.027-.382,2.449,2.449,0,0,1,.789-2,5.04,5.04,0,0,0,1.7-2.458,2.66,2.66,0,0,0-.356-2.586c-.091-.161-.176-.313-.243-.455a5.876,5.876,0,0,0-2.267-2.3A4.4,4.4,0,0,1,94.1,5.812a7.091,7.091,0,0,0-.405-.795c-.219-.334-1.26-.467-3.094-.395-.108,0-.189.007-.232.007-.253,0-.846,0-1.226,1.069a3.621,3.621,0,0,1-1.2,1.7l-.052.023-1.344.313c-.955.224-1.085.5-1.251.84a2.273,2.273,0,0,1-.2.357c-.329.466-1.25.673-2.317.914l-.514.117c-1.139.267-1.139,2.594-1.139,3.588a1.658,1.658,0,0,0,1.043,1.488,1.179,1.179,0,0,1,.186.114,1.219,1.219,0,0,0,.138.073,2.488,2.488,0,0,1,1.6,2.391A2.469,2.469,0,0,0,84.9,19.5a2.33,2.33,0,0,0,1.6.723C86.525,20.221,86.552,20.22,86.578,20.22Z" transform="translate(-80.822 -4.297)" fill="#fff"/>
      </g>
      <g id="Group_146" data-name="Group 146" transform="translate(0.194 0.813)">
        <path id="Path_5" data-name="Path 5" d="M90.917,21.275a8.548,8.548,0,0,1-3.258-.53,6.386,6.386,0,0,0-2.361-.553h0l-1.253-.056a.774.774,0,0,1-.649-.342c-.4-.611-.022-1.834.4-2.949.257-.68-.656-1.215-1.7-1.749-1.113-.571-1.083-.793-.476-2.637A3.41,3.41,0,0,1,84,9.882l.134-.058a2.634,2.634,0,0,0,1.293-1.9c.038-.134.072-.253.107-.348.177-.492.979-.963,1.819-1.4l.107-.056c.479-.252,3.25-.5,3.855.458a4.206,4.206,0,0,0,1.578,1.306c.178.1.345.2.491.3a6.955,6.955,0,0,1,2.577,4.006c.216,1.705.2,2.56-.453,3.12a2.621,2.621,0,0,0-1.029,1.662,2.806,2.806,0,0,1-.486,1.623,6.723,6.723,0,0,0-.867,1.512,1.933,1.933,0,0,1-1.574,1.146A5.27,5.27,0,0,1,90.917,21.275Zm-5.61-1.389a6.581,6.581,0,0,1,2.492.586,9.449,9.449,0,0,0,3.7.472,1.621,1.621,0,0,0,1.341-.968,6.977,6.977,0,0,1,.9-1.568,2.52,2.52,0,0,0,.427-1.456,2.88,2.88,0,0,1,1.137-1.879c.5-.429.576-1.042.347-2.849a6.658,6.658,0,0,0-2.443-3.79c-.141-.094-.3-.187-.474-.286a4.522,4.522,0,0,1-1.684-1.408C90.567,5.969,88,6.179,87.6,6.39l-.108.056c-.452.235-1.511.783-1.672,1.23-.032.09-.064.2-.1.328a2.928,2.928,0,0,1-1.467,2.1l-.136.058a3.134,3.134,0,0,0-2.207,2.39c-.592,1.8-.576,1.808.324,2.27.884.453,2.22,1.138,1.844,2.13-.219.577-.8,2.11-.43,2.674a.478.478,0,0,0,.408.2Z" transform="translate(-81.202 -5.891)" fill="#fff"/>
      </g>
      <g id="Group_147" data-name="Group 147" transform="translate(0.668 0.944)">
        <path id="Path_6" data-name="Path 6" d="M88.359,23.732a1.833,1.833,0,0,1-.489-.088,7.382,7.382,0,0,0-1.357-.243,2.424,2.424,0,0,1-2.04-1.32l0-.007-.4-1.1a2.933,2.933,0,0,1-.6-2.219l0-.075a1.935,1.935,0,0,0-.637-1.877c-.943-1.09-.94-2.055.011-2.952a2.013,2.013,0,0,0,.737-1.32.762.762,0,0,1,.269-.571,7.365,7.365,0,0,0,1.08-1.506c.136-2.114.295-2.416.383-2.482,2.791-2.675,5.475-1.621,5.5-1.611a13.4,13.4,0,0,1,1.919,1.416,1.481,1.481,0,0,0,.6.258,2.6,2.6,0,0,1,1.325.729c.624.671,1.39.527,2.658.288l.112-.021c1.361-.254,1.808,1.1,2.2,2.285.046.138.092.276.139.412.372,1.07-.2,1.535-.808,2.026a6.248,6.248,0,0,0-.652.582,1.787,1.787,0,0,0-.352,1.754,4.314,4.314,0,0,1,.08.713,1.637,1.637,0,0,1-.15.77,2.382,2.382,0,0,0-.194.977c-.054,1.123-.292,1.379-.542,1.649l-.066.072a3.548,3.548,0,0,1-.957.541,7.566,7.566,0,0,0-1.066.561,8.011,8.011,0,0,1-1.991.865l-.218.072a2.18,2.18,0,0,0-.454.224,2.662,2.662,0,0,1-1.439.419,4.307,4.307,0,0,0-1.7.5,3,3,0,0,1-.645.252A1.2,1.2,0,0,1,88.359,23.732Zm-3.6-1.766A2.128,2.128,0,0,0,86.543,23.1a7.748,7.748,0,0,1,1.406.252,1.1,1.1,0,0,0,.6.055,2.81,2.81,0,0,0,.576-.229,4.557,4.557,0,0,1,1.819-.526,2.342,2.342,0,0,0,1.3-.376,2.493,2.493,0,0,1,.514-.252l.22-.073a7.788,7.788,0,0,0,1.91-.824A7.629,7.629,0,0,1,96,20.536a3.845,3.845,0,0,0,.859-.469l.069-.075c.221-.239.412-.445.461-1.457a2.675,2.675,0,0,1,.219-1.083,1.342,1.342,0,0,0,.125-.649,3.975,3.975,0,0,0-.076-.661,2.083,2.083,0,0,1,.43-2.014,6.579,6.579,0,0,1,.683-.611c.61-.494,1.013-.82.711-1.688-.048-.137-.094-.276-.14-.416-.392-1.176-.76-2.287-1.858-2.081l-.112.021c-1.325.249-2.2.412-2.939-.38a2.312,2.312,0,0,0-1.185-.643A1.719,1.719,0,0,1,92.527,8,13.45,13.45,0,0,0,90.7,6.643C90.67,6.632,88.13,5.7,85.523,8.2a8.889,8.889,0,0,0-.287,2.312l-.02.066a7.767,7.767,0,0,1-1.181,1.63c-.1.073-.117.166-.148.371a2.3,2.3,0,0,1-.829,1.5c-.83.783-.826,1.563.011,2.529a2.213,2.213,0,0,1,.711,2.09l0,.075a2.682,2.682,0,0,0,.575,2.079Z" transform="translate(-82.132 -6.149)" fill="#fff"/>
      </g>
    </g>
  </g>
</svg>